<svg width="24" height="24" viewBox="0 0 24 24" fill="none" xmlns="http://www.w3.org/2000/svg">
<path fill-rule="evenodd" clip-rule="evenodd" d="M11.7966 3C12.3556 3 12.8934 3.22443 13.2837 3.63054L18.3777 8.79241C18.7786 9.18785 19 9.73287 19 10.2993V10.8747C19 10.9181 18.9985 10.9599 18.9956 11H19V19.2C19 20.19 18.1562 21 17.125 21H5.8656C4.83435 21 4 20.19 4 19.2L4.0094 4.80002C4.0094 3.81001 4.84375 3.00002 5.875 3.00002H11V3.00215C11.04 3.00072 11.0818 3 11.1251 3H11.7966ZM11.5001 9.41226V4.68742L11.5 4.57927V4.5H11.7966C11.9542 4.5 12.0994 4.563 12.202 4.66984L12.209 4.67705L12.2161 4.68416L17.3101 9.84603L17.3171 9.85316L17.3242 9.86018C17.4302 9.96476 17.5 10.1212 17.5 10.2993V10.4919C17.3242 10.5004 17.1372 10.5001 16.9011 10.4998L12.2502 10.4997C12.2538 10.4997 12.2531 10.4995 12.2483 10.4981C12.2206 10.4904 12.0582 10.4449 11.8414 10.1853C11.5974 9.89314 11.5001 9.57548 11.5001 9.41226Z" fill="#50A7EA"/>
</svg>
