<svg width="24" height="24" viewBox="0 0 24 24" fill="none" xmlns="http://www.w3.org/2000/svg">
<path fill-rule="evenodd" clip-rule="evenodd" d="M18.2069 21C19.1897 21 21 20.3793 21 18.2069V5.7931C21 4.86207 20.4414 3 18.2069 3H5.7931C4.81034 3 3 3.62069 3 5.7931V18.2069C3 19.1379 3.55862 21 5.7931 21H18.2069ZM11.3793 16.0345C11.0069 16.4069 10.6034 16.1897 10.4483 16.0345L8.74138 13.7069C8.4931 13.4586 8.27586 13.5517 8.12069 13.7069L5.7931 16.9655C5.63793 17.1724 5.32759 17.8966 5.7931 17.8966H18.2069C18.6724 17.8966 18.3621 17.1724 18.2069 16.9655L14.7931 11.6897C14.5448 11.4414 14.3276 11.5345 14.1724 11.6897C13.3966 12.931 11.7517 15.5379 11.3793 16.0345Z" fill="#50A7EA"/>
</svg>
