<svg width="28" height="28" viewBox="0 0 28 28" fill="none" xmlns="http://www.w3.org/2000/svg">
<path fill-rule="evenodd" clip-rule="evenodd" d="M11.0065 7.8H20.3021C21.9349 7.8 22.5293 7.97812 23.1237 8.30469C23.7253 8.63867 24.1908 9.12109 24.513 9.74453C24.8281 10.3605 25 10.9766 25 12.6687V18.1313C25 19.8234 24.8281 20.4395 24.513 21.0555C24.1908 21.6789 23.7253 22.1613 23.1237 22.4953C22.5293 22.8219 21.9349 23 20.3021 23H11.3646C9.73177 23 9.13737 22.8219 8.54297 22.4953C7.94141 22.1613 7.47591 21.6789 7.15365 21.0555C6.86003 20.484 6.69531 19.9199 6.66667 18.5023V12.6687C6.66667 10.9766 6.83854 10.3605 7.15365 9.74453C7.47591 9.12109 7.94141 8.63867 8.54297 8.30469C9.0944 8.00039 9.63867 7.82969 11.0065 7.8ZM19.5 4C20.0085 4 20.4167 4.42305 20.4167 4.95C20.4167 5.41758 20.0944 5.80352 19.6647 5.88516L19.5 5.9H9.41667C6.98893 5.9 4.99805 7.85938 4.84049 10.3383L4.83333 10.65V17.3C4.83333 17.827 4.42513 18.25 3.91667 18.25C3.46549 18.25 3.0931 17.916 3.01432 17.4707L3 17.3V10.65C3 7.10234 5.68555 4.20039 9.06576 4.00742L9.41667 4H19.5Z" fill="#008BFF"/>
</svg>
