<svg width="24" height="24" viewBox="0 0 24 24" fill="none" xmlns="http://www.w3.org/2000/svg">
<path d="M19.1782 2.01554C19.6012 1.92315 20 2.2544 20 2.69781V17.5155C19.5327 18.5297 18.0796 19.2577 16.6 19.2577C14.7222 19.2577 13.2 18.0877 13.2 16.6444C13.2001 15.2011 14.7223 14.031 16.6 14.031C17.2194 14.031 17.7998 14.159 18.3 14.3815V6.19083L9.8 7.93309V19.2577C9.33266 20.2719 7.87959 21 6.4 21C4.52223 21 3 19.8299 3 18.3866C3.00012 16.9434 4.52231 15.7732 6.4 15.7732C7.01939 15.7732 7.59985 15.9013 8.1 16.1237V5.01175C8.10018 4.6833 8.32449 4.40001 8.63789 4.33118L19.1782 2.01554Z" fill="#50A7EA"/>
</svg>
