<svg width="24" height="24" viewBox="0 0 24 24" fill="none" xmlns="http://www.w3.org/2000/svg">
<path d="M12 4C14.2091 4 16 5.79086 16 8V16C16 18.2091 14.2091 20 12 20H5C2.79086 20 1 18.2091 1 16V8C1 5.79086 2.79086 4 5 4H12Z" fill="#50A7EA"/>
<path d="M21.3594 5.36719C22.0106 4.82447 22.9998 5.2871 23 6.13477V17.5859C22.9999 18.4767 21.9229 18.9228 21.293 18.293L17.293 14.293C17.1055 14.1055 17 13.8511 17 13.5859V9.46875C17 9.17209 17.1316 8.89019 17.3594 8.7002L21.3594 5.36719Z" fill="#50A7EA"/>
</svg>
